<svg width="64" height="11" viewBox="0 0 64 11" fill="none" xmlns="http://www.w3.org/2000/svg">
<path d="M0.516 5.812C0.516 4.996 0.7 4.264 1.068 3.616C1.436 2.96 1.936 2.448 2.568 2.08C3.208 1.712 3.916 1.528 4.692 1.528C5.604 1.528 6.4 1.748 7.08 2.188C7.76 2.628 8.256 3.252 8.568 4.06H7.26C7.028 3.556 6.692 3.168 6.252 2.896C5.82 2.624 5.3 2.488 4.692 2.488C4.108 2.488 3.584 2.624 3.12 2.896C2.656 3.168 2.292 3.556 2.028 4.06C1.764 4.556 1.632 5.14 1.632 5.812C1.632 6.476 1.764 7.06 2.028 7.564C2.292 8.06 2.656 8.444 3.12 8.716C3.584 8.988 4.108 9.124 4.692 9.124C5.3 9.124 5.82 8.992 6.252 8.728C6.692 8.456 7.028 8.068 7.26 7.564H8.568C8.256 8.364 7.76 8.984 7.08 9.424C6.4 9.856 5.604 10.072 4.692 10.072C3.916 10.072 3.208 9.892 2.568 9.532C1.936 9.164 1.436 8.656 1.068 8.008C0.7 7.36 0.516 6.628 0.516 5.812ZM13.0615 10.108C12.4455 10.108 11.8855 9.968 11.3815 9.688C10.8855 9.408 10.4935 9.012 10.2055 8.5C9.92553 7.98 9.78553 7.38 9.78553 6.7C9.78553 6.028 9.92953 5.436 10.2175 4.924C10.5135 4.404 10.9135 4.008 11.4175 3.736C11.9215 3.456 12.4855 3.316 13.1095 3.316C13.7335 3.316 14.2975 3.456 14.8015 3.736C15.3055 4.008 15.7015 4.4 15.9895 4.912C16.2855 5.424 16.4335 6.02 16.4335 6.7C16.4335 7.38 16.2815 7.98 15.9775 8.5C15.6815 9.012 15.2775 9.408 14.7655 9.688C14.2535 9.968 13.6855 10.108 13.0615 10.108ZM13.0615 9.148C13.4535 9.148 13.8215 9.056 14.1655 8.872C14.5095 8.688 14.7855 8.412 14.9935 8.044C15.2095 7.676 15.3175 7.228 15.3175 6.7C15.3175 6.172 15.2135 5.724 15.0055 5.356C14.7975 4.988 14.5255 4.716 14.1895 4.54C13.8535 4.356 13.4895 4.264 13.0975 4.264C12.6975 4.264 12.3295 4.356 11.9935 4.54C11.6655 4.716 11.4015 4.988 11.2015 5.356C11.0015 5.724 10.9015 6.172 10.9015 6.7C10.9015 7.236 10.9975 7.688 11.1895 8.056C11.3895 8.424 11.6535 8.7 11.9815 8.884C12.3095 9.06 12.6695 9.148 13.0615 9.148ZM20.1973 10.108C19.6933 10.108 19.2413 10.024 18.8413 9.856C18.4413 9.68 18.1253 9.44 17.8933 9.136C17.6613 8.824 17.5333 8.468 17.5093 8.068H18.6373C18.6693 8.396 18.8213 8.664 19.0933 8.872C19.3733 9.08 19.7373 9.184 20.1853 9.184C20.6013 9.184 20.9293 9.092 21.1693 8.908C21.4093 8.724 21.5293 8.492 21.5293 8.212C21.5293 7.924 21.4013 7.712 21.1453 7.576C20.8893 7.432 20.4933 7.292 19.9573 7.156C19.4693 7.028 19.0693 6.9 18.7573 6.772C18.4533 6.636 18.1893 6.44 17.9653 6.184C17.7493 5.92 17.6413 5.576 17.6413 5.152C17.6413 4.816 17.7413 4.508 17.9413 4.228C18.1413 3.948 18.4253 3.728 18.7933 3.568C19.1613 3.4 19.5813 3.316 20.0533 3.316C20.7813 3.316 21.3693 3.5 21.8173 3.868C22.2653 4.236 22.5053 4.74 22.5373 5.38H21.4453C21.4213 5.036 21.2813 4.76 21.0253 4.552C20.7773 4.344 20.4413 4.24 20.0173 4.24C19.6253 4.24 19.3133 4.324 19.0813 4.492C18.8493 4.66 18.7333 4.88 18.7333 5.152C18.7333 5.368 18.8013 5.548 18.9373 5.692C19.0813 5.828 19.2573 5.94 19.4653 6.028C19.6813 6.108 19.9773 6.2 20.3533 6.304C20.8253 6.432 21.2093 6.56 21.5053 6.688C21.8013 6.808 22.0533 6.992 22.2613 7.24C22.4773 7.488 22.5893 7.812 22.5973 8.212C22.5973 8.572 22.4973 8.896 22.2973 9.184C22.0973 9.472 21.8133 9.7 21.4453 9.868C21.0853 10.028 20.6693 10.108 20.1973 10.108ZM25.4708 4.324V8.2C25.4708 8.52 25.5388 8.748 25.6748 8.884C25.8108 9.012 26.0468 9.076 26.3828 9.076H27.1868V10H26.2028C25.5948 10 25.1388 9.86 24.8348 9.58C24.5308 9.3 24.3788 8.84 24.3788 8.2V4.324H23.5268V3.424H24.3788V1.768H25.4708V3.424H27.1868V4.324H25.4708ZM28.1019 6.688C28.1019 6.016 28.2379 5.428 28.5099 4.924C28.7819 4.412 29.1539 4.016 29.6259 3.736C30.1059 3.456 30.6379 3.316 31.2219 3.316C31.7979 3.316 32.2979 3.44 32.7219 3.688C33.1459 3.936 33.4619 4.248 33.6699 4.624V3.424H34.7739V10H33.6699V8.776C33.4539 9.16 33.1299 9.48 32.6979 9.736C32.2739 9.984 31.7779 10.108 31.2099 10.108C30.6259 10.108 30.0979 9.964 29.6259 9.676C29.1539 9.388 28.7819 8.984 28.5099 8.464C28.2379 7.944 28.1019 7.352 28.1019 6.688ZM33.6699 6.7C33.6699 6.204 33.5699 5.772 33.3699 5.404C33.1699 5.036 32.8979 4.756 32.5539 4.564C32.2179 4.364 31.8459 4.264 31.4379 4.264C31.0299 4.264 30.6579 4.36 30.3219 4.552C29.9859 4.744 29.7179 5.024 29.5179 5.392C29.3179 5.76 29.2179 6.192 29.2179 6.688C29.2179 7.192 29.3179 7.632 29.5179 8.008C29.7179 8.376 29.9859 8.66 30.3219 8.86C30.6579 9.052 31.0299 9.148 31.4379 9.148C31.8459 9.148 32.2179 9.052 32.5539 8.86C32.8979 8.66 33.1699 8.376 33.3699 8.008C33.5699 7.632 33.6699 7.196 33.6699 6.7ZM44.2225 10L42.2305 6.58H40.9105V10H39.8185V1.636H42.5185C43.1505 1.636 43.6825 1.744 44.1145 1.96C44.5545 2.176 44.8825 2.468 45.0985 2.836C45.3145 3.204 45.4225 3.624 45.4225 4.096C45.4225 4.672 45.2545 5.18 44.9185 5.62C44.5905 6.06 44.0945 6.352 43.4305 6.496L45.5305 10H44.2225ZM40.9105 5.704H42.5185C43.1105 5.704 43.5545 5.56 43.8505 5.272C44.1465 4.976 44.2945 4.584 44.2945 4.096C44.2945 3.6 44.1465 3.216 43.8505 2.944C43.5625 2.672 43.1185 2.536 42.5185 2.536H40.9105V5.704ZM47.6833 2.356C47.4753 2.356 47.2993 2.284 47.1553 2.14C47.0113 1.996 46.9393 1.82 46.9393 1.612C46.9393 1.404 47.0113 1.228 47.1553 1.084C47.2993 0.94 47.4753 0.868 47.6833 0.868C47.8833 0.868 48.0513 0.94 48.1873 1.084C48.3313 1.228 48.4033 1.404 48.4033 1.612C48.4033 1.82 48.3313 1.996 48.1873 2.14C48.0513 2.284 47.8833 2.356 47.6833 2.356ZM48.2113 3.424V10H47.1193V3.424H48.2113ZM49.6644 6.7C49.6644 6.02 49.8004 5.428 50.0724 4.924C50.3444 4.412 50.7204 4.016 51.2004 3.736C51.6884 3.456 52.2444 3.316 52.8684 3.316C53.6764 3.316 54.3404 3.512 54.8604 3.904C55.3884 4.296 55.7364 4.84 55.9044 5.536H54.7284C54.6164 5.136 54.3964 4.82 54.0684 4.588C53.7484 4.356 53.3484 4.24 52.8684 4.24C52.2444 4.24 51.7404 4.456 51.3564 4.888C50.9724 5.312 50.7804 5.916 50.7804 6.7C50.7804 7.492 50.9724 8.104 51.3564 8.536C51.7404 8.968 52.2444 9.184 52.8684 9.184C53.3484 9.184 53.7484 9.072 54.0684 8.848C54.3884 8.624 54.6084 8.304 54.7284 7.888H55.9044C55.7284 8.56 55.3764 9.1 54.8484 9.508C54.3204 9.908 53.6604 10.108 52.8684 10.108C52.2444 10.108 51.6884 9.968 51.2004 9.688C50.7204 9.408 50.3444 9.012 50.0724 8.5C49.8004 7.988 49.6644 7.388 49.6644 6.7ZM56.9535 6.688C56.9535 6.016 57.0895 5.428 57.3615 4.924C57.6335 4.412 58.0055 4.016 58.4775 3.736C58.9575 3.456 59.4895 3.316 60.0735 3.316C60.6495 3.316 61.1495 3.44 61.5735 3.688C61.9975 3.936 62.3135 4.248 62.5215 4.624V3.424H63.6255V10H62.5215V8.776C62.3055 9.16 61.9815 9.48 61.5495 9.736C61.1255 9.984 60.6295 10.108 60.0615 10.108C59.4775 10.108 58.9495 9.964 58.4775 9.676C58.0055 9.388 57.6335 8.984 57.3615 8.464C57.0895 7.944 56.9535 7.352 56.9535 6.688ZM62.5215 6.7C62.5215 6.204 62.4215 5.772 62.2215 5.404C62.0215 5.036 61.7495 4.756 61.4055 4.564C61.0695 4.364 60.6975 4.264 60.2895 4.264C59.8815 4.264 59.5095 4.36 59.1735 4.552C58.8375 4.744 58.5695 5.024 58.3695 5.392C58.1695 5.76 58.0695 6.192 58.0695 6.688C58.0695 7.192 58.1695 7.632 58.3695 8.008C58.5695 8.376 58.8375 8.66 59.1735 8.86C59.5095 9.052 59.8815 9.148 60.2895 9.148C60.6975 9.148 61.0695 9.052 61.4055 8.86C61.7495 8.66 62.0215 8.376 62.2215 8.008C62.4215 7.632 62.5215 7.196 62.5215 6.7Z" fill="white"/>
</svg>
